<svg width="33" height="33" viewBox="0 0 33 33" fill="none" xmlns="http://www.w3.org/2000/svg">
<path d="M15.1268 1.37419C16.2931 0.803656 17.6578 0.803656 18.8242 1.37419L22.6502 3.24618L26.6793 4.6279C27.9077 5.04909 28.8726 6.014 29.2938 7.24235L30.6755 11.2713L32.5476 15.0973C33.1181 16.2636 33.1181 17.6283 32.5476 18.7946L30.6755 22.6215L29.2938 26.6494C28.8726 27.8781 27.9077 28.8421 26.6793 29.2646L22.6502 30.6458L18.8242 32.5177C17.6578 33.0891 16.2931 33.0891 15.1268 32.5177L11.3007 30.6458L7.27165 29.2646C6.04327 28.8421 5.07835 27.8781 4.65715 26.6494L3.2754 22.6215L1.40337 18.7946C0.832828 17.6283 0.832828 16.2636 1.40337 15.0973L3.2754 11.2713L4.65715 7.24235C5.07835 6.014 6.04327 5.04909 7.27165 4.6279L11.3007 3.24618L15.1268 1.37419Z" fill="#FFE7D8"/>
<g clip-path="url(#clip0_8055_11774)">
<path d="M24.5588 16.9463C24.5588 17.113 24.5519 17.2866 24.538 17.4671C24.5241 17.6338 24.5032 17.8005 24.4755 17.9671C24.3227 17.9671 24.156 17.9671 23.9755 17.9671C23.8088 17.9671 23.6352 17.9671 23.4546 17.9671C23.4685 17.6755 23.4755 17.4671 23.4755 17.3421C23.4755 17.2032 23.4755 17.0713 23.4755 16.9463C23.4755 16.6546 23.4546 16.363 23.413 16.0713C23.3713 15.7796 23.3088 15.488 23.2255 15.1963L24.0796 14.3421C24.2463 14.7449 24.3644 15.1685 24.4338 15.613C24.5171 16.0435 24.5588 16.488 24.5588 16.9463ZM9.39213 16.9463C9.39213 15.8907 9.58658 14.9046 9.97546 13.988C10.3782 13.0713 10.9199 12.2727 11.6005 11.5921C12.2949 10.8977 13.1005 10.356 14.0171 9.96712C14.9477 9.56435 15.9338 9.36296 16.9755 9.36296C17.7949 9.36296 18.5796 9.48796 19.3296 9.73796C20.0796 9.97407 20.7671 10.3213 21.3921 10.7796L20.6421 11.5713C20.1144 11.2241 19.538 10.9532 18.913 10.7588C18.3019 10.5505 17.656 10.4463 16.9755 10.4463C15.1699 10.4463 13.6352 11.0782 12.3713 12.3421C11.1074 13.606 10.4755 15.1407 10.4755 16.9463C10.4755 18.7241 11.0866 20.2449 12.3088 21.5088C13.5449 22.7588 15.0519 23.4046 16.8296 23.4463C16.9269 23.4463 17.031 23.4463 17.1421 23.4463C17.2532 23.4463 17.4338 23.4393 17.6838 23.4255C17.6838 23.606 17.6838 23.7866 17.6838 23.9671C17.6838 24.1338 17.6838 24.3005 17.6838 24.4671C17.5588 24.481 17.4269 24.4949 17.288 24.5088C17.1491 24.5227 17.0171 24.5296 16.8921 24.5296C15.8505 24.5157 14.8782 24.3143 13.9755 23.9255C13.0727 23.5227 12.2741 22.9741 11.5796 22.2796C10.8991 21.5852 10.3644 20.7796 9.97546 19.863C9.58658 18.9463 9.39213 17.9741 9.39213 16.9463ZM22.2671 25.7796C22.2532 25.7796 22.1977 25.738 22.1005 25.6546C21.906 24.9046 21.538 24.2588 20.9963 23.7171C20.4546 23.1616 19.8019 22.7935 19.038 22.613C19.0241 22.5991 18.9894 22.5435 18.9338 22.4463C18.9338 22.4185 18.9755 22.363 19.0588 22.2796C19.8088 22.0991 20.4546 21.738 20.9963 21.1963C21.538 20.6407 21.906 19.988 22.1005 19.238C22.1144 19.2102 22.1699 19.1685 22.2671 19.113C22.2949 19.113 22.3505 19.1546 22.4338 19.238C22.6144 19.988 22.9755 20.6338 23.5171 21.1755C24.0727 21.7171 24.7255 22.0852 25.4755 22.2796C25.5032 22.2796 25.5449 22.3352 25.6005 22.4463C25.6005 22.4602 25.5588 22.5157 25.4755 22.613C24.7116 22.7935 24.0588 23.1616 23.5171 23.7171C22.9755 24.2588 22.6144 24.9046 22.4338 25.6546C22.4338 25.6824 22.3782 25.7241 22.2671 25.7796ZM15.8088 20.2588L24.5588 11.5296C24.4338 11.3907 24.3019 11.2588 24.163 11.1338C24.038 11.0088 23.913 10.8838 23.788 10.7588L15.8296 18.6963L13.538 16.4046L12.7463 17.1963L15.8088 20.2588Z" fill="#F8844D"/>
</g>
<defs>
<clipPath id="clip0_8055_11774">
<rect width="20" height="20" fill="white" transform="translate(6.97546 6.94629)"/>
</clipPath>
</defs>
</svg>
