<svg width="60" height="40" viewBox="0 0 60 40" fill="none" xmlns="http://www.w3.org/2000/svg">
<rect x="29" y="13" width="17" height="20" rx="4" fill="url(#paint0_linear_8070_4802)"/>
<path d="M36.2343 25.668V25.206C36.2343 24.8793 36.2716 24.5993 36.3463 24.366C36.4209 24.1233 36.5469 23.8947 36.7243 23.68C36.9109 23.456 37.1629 23.218 37.4803 22.966C37.6856 22.798 37.8536 22.644 37.9843 22.504C38.1243 22.3547 38.2269 22.196 38.2923 22.028C38.3669 21.8507 38.4043 21.65 38.4043 21.426C38.4043 21.0527 38.2783 20.754 38.0263 20.53C37.7836 20.2967 37.4336 20.18 36.9763 20.18C36.7056 20.18 36.4629 20.2313 36.2483 20.334C36.0429 20.4367 35.8749 20.586 35.7443 20.782C35.6136 20.9687 35.5249 21.1927 35.4783 21.454L34.0923 21.272C34.1389 20.796 34.2836 20.3713 34.5263 19.998C34.7689 19.6153 35.1003 19.312 35.5203 19.088C35.9403 18.864 36.4303 18.752 36.9903 18.752C37.5969 18.752 38.1149 18.8593 38.5443 19.074C38.9829 19.2793 39.3189 19.578 39.5523 19.97C39.7856 20.3527 39.9023 20.8053 39.9023 21.328C39.9023 21.72 39.8416 22.0653 39.7203 22.364C39.5989 22.6533 39.4403 22.9147 39.2443 23.148C39.0483 23.3813 38.8383 23.5867 38.6143 23.764C38.3996 23.932 38.2269 24.0953 38.0963 24.254C37.9749 24.4033 37.8863 24.562 37.8303 24.73C37.7836 24.898 37.7603 25.0987 37.7603 25.332V25.668H36.2343ZM36.9903 29.084C36.6916 29.084 36.4396 28.9813 36.2343 28.776C36.0383 28.5707 35.9403 28.3233 35.9403 28.034C35.9403 27.7447 36.0383 27.4973 36.2343 27.292C36.4396 27.0867 36.6916 26.984 36.9903 26.984C37.2796 26.984 37.5223 27.0867 37.7183 27.292C37.9236 27.4973 38.0263 27.7447 38.0263 28.034C38.0263 28.3233 37.9236 28.5707 37.7183 28.776C37.5223 28.9813 37.2796 29.084 36.9903 29.084Z" fill="white"/>
<rect x="14" y="7" width="17" height="20" rx="4" fill="url(#paint1_linear_8070_4802)"/>
<rect x="17" y="11" width="11" height="2" rx="1" fill="white"/>
<rect x="17" y="15" width="11" height="2" rx="1" fill="white"/>
<rect x="17" y="19" width="11" height="2" rx="1" fill="white"/>
<defs>
<linearGradient id="paint0_linear_8070_4802" x1="38.0667" y1="33" x2="29.4823" y2="13.0004" gradientUnits="userSpaceOnUse">
<stop stop-color="#FFC1A8"/>
<stop offset="1" stop-color="#FF743D"/>
</linearGradient>
<linearGradient id="paint1_linear_8070_4802" x1="23.0667" y1="27" x2="14.4823" y2="7.00042" gradientUnits="userSpaceOnUse">
<stop stop-color="#FFC1A8"/>
<stop offset="1" stop-color="#FF743D"/>
</linearGradient>
</defs>
</svg>
