
<svg width="60" height="40" viewBox="0 0 60 40" fill="none" xmlns="http://www.w3.org/2000/svg">
<path d="M19.5244 20.5229H37.5244" stroke="#91AFB7"/>
<path d="M19 20.5C20 20.6667 22.5 20 24.5 16C26.5 12 26 9 29 9" stroke="#91AFB7"/>
<path d="M19 20.5459C20 20.3792 22.5 21.0459 24.5 25.0459C26.5 29.0459 26 32.0459 29 32.0459" stroke="#91AFB7"/>
<path d="M37 20C37 18.3431 38.3431 17 40 17H48.9277C50.5846 17 51.9277 18.3431 51.9277 20V20C51.9277 21.6569 50.5846 23 48.9277 23H40C38.3431 23 37 21.6569 37 20V20Z" fill="url(#paint0_linear_8070_4848)"/>
<path d="M29 32C29 30.3431 30.3431 29 32 29H43C44.6569 29 46 30.3431 46 32V32C46 33.6569 44.6569 35 43 35H32C30.3431 35 29 33.6569 29 32V32Z" fill="url(#paint1_linear_8070_4848)"/>
<path d="M8 20.2433C8 18.4521 9.45206 17 11.2433 17H16.1081C17.8994 17 19.3514 18.4521 19.3514 20.2433V20.2433C19.3514 22.0345 17.8994 23.4865 16.1081 23.4865H11.2433C9.45206 23.4865 8 22.0345 8 20.2433V20.2433Z" fill="url(#paint2_linear_8070_4848)"/>
<path d="M29 9C29 7.34315 30.3431 6 32 6H39.3208C40.9777 6 42.3208 7.34315 42.3208 9V9C42.3208 10.6569 40.9777 12 39.3208 12H32C30.3431 12 29 10.6569 29 9V9Z" fill="url(#paint3_linear_8070_4848)"/>
<defs>
<linearGradient id="paint0_linear_8070_4848" x1="37" y1="21" x2="49.872" y2="6.64396" gradientUnits="userSpaceOnUse">
<stop stop-color="#ABE6F6"/>
<stop offset="0.735577" stop-color="#DBF8FF"/>
<stop offset="1" stop-color="#F4FBFD"/>
</linearGradient>
<linearGradient id="paint1_linear_8070_4848" x1="29" y1="33" x2="41.5872" y2="17.0128" gradientUnits="userSpaceOnUse">
<stop stop-color="#ABE6F6"/>
<stop offset="0.735577" stop-color="#DBF8FF"/>
<stop offset="1" stop-color="#F4FBFD"/>
</linearGradient>
<linearGradient id="paint2_linear_8070_4848" x1="8" y1="21.3243" x2="21.5962" y2="10.6584" gradientUnits="userSpaceOnUse">
<stop stop-color="#ABE6F6"/>
<stop offset="0.735577" stop-color="#DBF8FF"/>
<stop offset="1" stop-color="#F4FBFD"/>
</linearGradient>
<linearGradient id="paint3_linear_8070_4848" x1="29" y1="10" x2="41.9486" y2="-2.88683" gradientUnits="userSpaceOnUse">
<stop stop-color="#ABE6F6"/>
<stop offset="0.735577" stop-color="#DBF8FF"/>
<stop offset="1" stop-color="#F4FBFD"/>
</linearGradient>
</defs>
</svg>
