<svg width="40" height="40" viewBox="0 0 40 40" fill="none" xmlns="http://www.w3.org/2000/svg">
<path d="M29.333 8C30.7997 8 32 9.20033 32 10.667V29.333C32 30.7997 30.7997 32 29.333 32H10.667C9.20033 32 8 30.7997 8 29.333V10.667C8 9.20033 9.20033 8 10.667 8H29.333ZM11.333 24H13.333V21.333H14.667C15.7735 21.3328 16.667 20.4396 16.667 19.333V18C16.667 16.8934 15.7735 16.0002 14.667 16H11.333V24ZM18 24H21.333C22.4397 24 23.333 23.1067 23.333 22V18C23.333 16.8933 22.4397 16 21.333 16H18V24ZM24.667 24H26.667V21.333H28.667V19.333H26.667V18H30V16H24.667V24ZM21.333 18V22H20V18H21.333ZM14.667 19.333H13.333V18H14.667V19.333Z" fill="#716454"/>
<mask id="mask0_8074_4900" style="mask-type:luminance" maskUnits="userSpaceOnUse" x="8" y="8" width="24" height="24">
<path d="M29.333 8C30.7997 8 32 9.20033 32 10.667V29.333C32 30.7997 30.7997 32 29.333 32H10.667C9.20033 32 8 30.7997 8 29.333V10.667C8 9.20033 9.20033 8 10.667 8H29.333ZM11.333 24H13.333V21.333H14.667C15.7735 21.3328 16.667 20.4396 16.667 19.333V18C16.667 16.8934 15.7735 16.0002 14.667 16H11.333V24ZM18 24H21.333C22.4397 24 23.333 23.1067 23.333 22V18C23.333 16.8933 22.4397 16 21.333 16H18V24ZM24.667 24H26.667V21.333H28.667V19.333H26.667V18H30V16H24.667V24ZM21.333 18V22H20V18H21.333ZM14.667 19.333H13.333V18H14.667V19.333Z" fill="white"/>
</mask>
<g mask="url(#mask0_8074_4900)">
</g>
</svg>
