<svg width="40" height="40" viewBox="0 0 40 40" fill="none" xmlns="http://www.w3.org/2000/svg">
<path d="M0.784099 20.7978C0.463235 20.4769 0.463236 19.9567 0.7841 19.6358L10.0005 10.4194C15.4114 5.00851 24.1842 5.00852 29.5952 10.4194C35.0061 15.8304 35.0061 24.6032 29.5952 30.0141C24.1842 35.4251 15.4114 35.4251 10.0005 30.0141L0.784099 20.7978Z" fill="#FF7215"/>
<path d="M18.8186 22.7028C18.8186 21.7989 18.9065 21.1273 19.0823 20.6879C19.2706 20.236 19.6535 19.7589 20.2309 19.2568C20.7707 18.7923 21.1348 18.4219 21.3231 18.1458C21.5114 17.857 21.6056 17.5369 21.6056 17.1854C21.6056 16.7084 21.4361 16.3192 21.0971 16.0179C20.7582 15.7041 20.3251 15.5471 19.7978 15.5471C19.3333 15.5471 18.9253 15.6915 18.5738 15.9802C18.2223 16.269 17.9713 16.6644 17.8206 17.1666L16.0129 16.4133C16.2765 15.5848 16.7535 14.9194 17.444 14.4173C18.147 13.9151 18.9316 13.6641 19.7978 13.6641C20.9151 13.6641 21.8253 13.9905 22.5283 14.6433C23.2313 15.2835 23.5828 16.112 23.5828 17.1289C23.5828 17.6562 23.4635 18.1395 23.225 18.5789C22.999 19.0057 22.5848 19.5016 21.9822 20.0665C21.4675 20.5435 21.1474 20.9264 21.0218 21.2152C20.9088 21.4913 20.8461 21.9872 20.8335 22.7028H18.8186ZM19.7978 26.7702C19.4212 26.7702 19.1011 26.6384 18.8375 26.3748C18.5738 26.1111 18.442 25.791 18.442 25.4144C18.442 25.0378 18.5738 24.7177 18.8375 24.454C19.1011 24.1904 19.4212 24.0586 19.7978 24.0586C20.1744 24.0586 20.4946 24.1904 20.7582 24.454C21.0218 24.7177 21.1536 25.0378 21.1536 25.4144C21.1536 25.791 21.0218 26.1111 20.7582 26.3748C20.4946 26.6384 20.1744 26.7702 19.7978 26.7702Z" fill="white"/>
</svg>
